<svg width="24" height="24" viewBox="0 0 24 24" fill="none" xmlns="http://www.w3.org/2000/svg">
<path fill-rule="evenodd" clip-rule="evenodd" d="M14.0001 18.3413C14.0001 19.2403 13.0841 20.0003 12.0001 20.0003C10.9161 20.0003 10.0001 19.2403 10.0001 18.3413V18.0003H14.0001V18.3413ZM20.5211 15.2073L18.7201 13.4043V8.9363C18.7201 5.4553 16.2181 2.4993 12.8991 2.0593C10.9781 1.8043 9.03809 2.3903 7.58309 3.6663C6.11909 4.9483 5.28009 6.7933 5.28009 8.7273L5.27909 13.4043L3.47909 15.2083C3.01009 15.6773 2.87109 16.3773 3.12509 16.9903C3.38009 17.6033 3.97309 18.0003 4.63709 18.0003H8.00009V18.3413C8.00009 20.3593 9.79409 22.0003 12.0001 22.0003C14.2061 22.0003 16.0001 20.3593 16.0001 18.3413V18.0003H19.3621C20.0261 18.0003 20.6191 17.6043 20.8731 16.9903C21.1281 16.3773 20.9891 15.6773 20.5211 15.2073Z" fill="#231F20"/>
<mask id="mask0_96_152" style="mask-type:alpha" maskUnits="userSpaceOnUse" x="2" y="2" width="19" height="20">
<path fill-rule="evenodd" clip-rule="evenodd" d="M14.0001 18.3405C14.0001 19.2395 13.0841 19.9995 12.0001 19.9995C10.9161 19.9995 10.0001 19.2395 10.0001 18.3405V17.9995H14.0001V18.3405ZM20.5211 15.2065L18.7201 13.4035V8.93553C18.7201 5.45453 16.2181 2.49853 12.8991 2.05853C10.9781 1.80353 9.03809 2.38953 7.58309 3.66553C6.11909 4.94753 5.28009 6.79253 5.28009 8.72653L5.27909 13.4035L3.47909 15.2075C3.01009 15.6765 2.87109 16.3765 3.12509 16.9895C3.38009 17.6025 3.97309 17.9995 4.63709 17.9995H8.00009V18.3405C8.00009 20.3585 9.79409 21.9995 12.0001 21.9995C14.2061 21.9995 16.0001 20.3585 16.0001 18.3405V17.9995H19.3621C20.0261 17.9995 20.6191 17.6035 20.8731 16.9895C21.1281 16.3765 20.9891 15.6765 20.5211 15.2065Z" fill="white"/>
</mask>
<g mask="url(#mask0_96_152)">
<rect width="24" height="24" fill="#50556D"/>
</g>
</svg>
