<svg width="20" height="20" viewBox="0 0 20 20" fill="none" xmlns="http://www.w3.org/2000/svg">
<path d="M6.66671 5.83333V12.5C6.66671 13.4205 7.4129 14.1667 8.33337 14.1667H13.3334M6.66671 5.83333V4.16667C6.66671 3.24619 7.4129 2.5 8.33337 2.5H12.1549C12.3759 2.5 12.5878 2.5878 12.7441 2.74408L16.4226 6.42259C16.5789 6.57887 16.6667 6.79083 16.6667 7.01184V12.5C16.6667 13.4205 15.9205 14.1667 15 14.1667H13.3334M6.66671 5.83333H5.33337C4.22881 5.83333 3.33337 6.72876 3.33337 7.83333V15.8333C3.33337 16.7538 4.07957 17.5 5.00004 17.5H11.3334C12.4379 17.5 13.3334 16.6046 13.3334 15.5V14.1667" stroke="#4465F0" stroke-width="2" stroke-linecap="round" stroke-linejoin="round"/>
</svg>
