<svg width="24" height="24" viewBox="0 0 24 24" fill="none" xmlns="http://www.w3.org/2000/svg">
<path d="M11.9998 15.4999C11.8682 15.5007 11.7377 15.4755 11.6159 15.4257C11.4941 15.3759 11.3833 15.3026 11.2898 15.2099L7.28982 11.2099C7.19658 11.1167 7.12262 11.006 7.07216 10.8842C7.0217 10.7624 6.99573 10.6318 6.99573 10.4999C6.99573 10.3681 7.0217 10.2375 7.07216 10.1157C7.12262 9.99387 7.19658 9.88318 7.28982 9.78994C7.38306 9.6967 7.49375 9.62274 7.61557 9.57228C7.73739 9.52182 7.86796 9.49585 7.99982 9.49585C8.13168 9.49585 8.26225 9.52182 8.38407 9.57228C8.50589 9.62274 8.61658 9.6967 8.70982 9.78994L11.9998 13.0999L15.2998 9.91994C15.3918 9.81765 15.5039 9.73544 15.6291 9.67846C15.7543 9.62147 15.89 9.59093 16.0275 9.58875C16.1651 9.58657 16.3016 9.6128 16.4286 9.66579C16.5555 9.71878 16.6702 9.7974 16.7653 9.89672C16.8605 9.99605 16.9342 10.1139 16.9817 10.243C17.0293 10.3721 17.0497 10.5096 17.0417 10.647C17.0336 10.7843 16.9974 10.9185 16.9351 11.0412C16.8728 11.1639 16.7859 11.2724 16.6798 11.3599L12.6798 15.2199C12.4969 15.3963 12.2538 15.4964 11.9998 15.4999Z" fill="#50556D"/>
</svg>
