<svg width="119" height="40" viewBox="0 0 119 40" fill="none" xmlns="http://www.w3.org/2000/svg">
<mask id="path-1-inside-1_96_172" fill="white">
<path d="M0 12.1874C0.507563 12.0605 1.17374 11.9257 1.99853 11.7829C2.83918 11.6402 3.80672 11.5688 4.90116 11.5688C5.69422 11.5688 6.3604 11.6798 6.89969 11.9019C7.43897 12.1081 7.89102 12.4174 8.25583 12.8298C8.36686 12.7505 8.54134 12.6394 8.77926 12.4967C9.01718 12.3539 9.31061 12.2191 9.65956 12.0922C10.0085 11.9495 10.3971 11.8305 10.8254 11.7353C11.2536 11.6243 11.7136 11.5688 12.2053 11.5688C13.157 11.5688 13.9342 11.7116 14.5369 11.9971C15.1397 12.2667 15.6076 12.6553 15.9407 13.1629C16.2896 13.6704 16.5196 14.2732 16.6306 14.9711C16.7575 15.669 16.821 16.4303 16.821 17.2551V24.2024H14.6083V17.7309C14.6083 17.0013 14.5686 16.3748 14.4893 15.8514C14.4259 15.3279 14.2911 14.8918 14.0849 14.5428C13.8945 14.1939 13.6249 13.9401 13.2759 13.7815C12.9429 13.607 12.5067 13.5198 11.9674 13.5198C11.2219 13.5198 10.6033 13.6228 10.1116 13.829C9.63577 14.0194 9.31061 14.1939 9.13614 14.3525C9.26303 14.7649 9.3582 15.2169 9.42164 15.7086C9.48509 16.2003 9.51681 16.7158 9.51681 17.2551V24.2024H7.30415V17.7309C7.30415 17.0013 7.2645 16.3748 7.18519 15.8514C7.10588 15.3279 6.96313 14.8918 6.75693 14.5428C6.5666 14.1939 6.29696 13.9401 5.94801 13.7815C5.61492 13.607 5.18666 13.5198 4.66324 13.5198C4.44118 13.5198 4.20326 13.5277 3.94948 13.5435C3.69569 13.5594 3.44984 13.5832 3.21192 13.6149C2.98986 13.6308 2.78367 13.6546 2.59333 13.6863C2.40299 13.718 2.2761 13.7418 2.21266 13.7577V24.2024H0V12.1874Z"/>
<path d="M31.4133 18.0164C31.4133 18.9998 31.2705 19.8881 30.985 20.6811C30.6995 21.4742 30.2951 22.1563 29.7716 22.7273C29.2641 23.2983 28.6534 23.7424 27.9396 24.0596C27.2259 24.361 26.4487 24.5117 25.608 24.5117C24.7674 24.5117 23.9902 24.361 23.2764 24.0596C22.5626 23.7424 21.9441 23.2983 21.4206 22.7273C20.9131 22.1563 20.5165 21.4742 20.231 20.6811C19.9455 19.8881 19.8028 18.9998 19.8028 18.0164C19.8028 17.0489 19.9455 16.1686 20.231 15.3755C20.5165 14.5666 20.9131 13.8766 21.4206 13.3056C21.9441 12.7346 22.5626 12.2984 23.2764 11.9971C23.9902 11.6798 24.7674 11.5212 25.608 11.5212C26.4487 11.5212 27.2259 11.6798 27.9396 11.9971C28.6534 12.2984 29.2641 12.7346 29.7716 13.3056C30.2951 13.8766 30.6995 14.5666 30.985 15.3755C31.2705 16.1686 31.4133 17.0489 31.4133 18.0164ZM29.1054 18.0164C29.1054 16.6206 28.7882 15.5183 28.1538 14.7094C27.5352 13.8846 26.6866 13.4722 25.608 13.4722C24.5295 13.4722 23.6729 13.8846 23.0385 14.7094C22.4199 15.5183 22.1106 16.6206 22.1106 18.0164C22.1106 19.4122 22.4199 20.5225 23.0385 21.3473C23.6729 22.1563 24.5295 22.5607 25.608 22.5607C26.6866 22.5607 27.5352 22.1563 28.1538 21.3473C28.7882 20.5225 29.1054 19.4122 29.1054 18.0164Z"/>
<path d="M45.4469 18.0164C45.4469 18.9998 45.3041 19.8881 45.0186 20.6811C44.7331 21.4742 44.3286 22.1563 43.8052 22.7273C43.2976 23.2983 42.687 23.7424 41.9732 24.0596C41.2595 24.361 40.4823 24.5117 39.6416 24.5117C38.8009 24.5117 38.0237 24.361 37.31 24.0596C36.5962 23.7424 35.9776 23.2983 35.4542 22.7273C34.9466 22.1563 34.5501 21.4742 34.2646 20.6811C33.9791 19.8881 33.8363 18.9998 33.8363 18.0164C33.8363 17.0489 33.9791 16.1686 34.2646 15.3755C34.5501 14.5666 34.9466 13.8766 35.4542 13.3056C35.9776 12.7346 36.5962 12.2984 37.31 11.9971C38.0237 11.6798 38.8009 11.5212 39.6416 11.5212C40.4823 11.5212 41.2595 11.6798 41.9732 11.9971C42.687 12.2984 43.2976 12.7346 43.8052 13.3056C44.3286 13.8766 44.7331 14.5666 45.0186 15.3755C45.3041 16.1686 45.4469 17.0489 45.4469 18.0164ZM43.139 18.0164C43.139 16.6206 42.8218 15.5183 42.1873 14.7094C41.5688 13.8846 40.7202 13.4722 39.6416 13.4722C38.563 13.4722 37.7065 13.8846 37.0721 14.7094C36.4535 15.5183 36.1442 16.6206 36.1442 18.0164C36.1442 19.4122 36.4535 20.5225 37.0721 21.3473C37.7065 22.1563 38.563 22.5607 39.6416 22.5607C40.7202 22.5607 41.5688 22.1563 42.1873 21.3473C42.8218 20.5225 43.139 19.4122 43.139 18.0164Z"/>
<path d="M50.6298 11.8305H55.3168V13.6863H50.6298V19.3964C50.6298 20.015 50.6774 20.5305 50.7725 20.9429C50.8677 21.3394 51.0105 21.6566 51.2008 21.8945C51.3911 22.1166 51.6291 22.2752 51.9146 22.3704C52.2001 22.4656 52.5332 22.5131 52.9138 22.5131C53.58 22.5131 54.1114 22.4418 54.5079 22.299C54.9203 22.1404 55.2058 22.0294 55.3644 21.9659L55.7927 23.7979C55.5706 23.9089 55.182 24.0438 54.6269 24.2024C54.0717 24.3768 53.4373 24.4641 52.7235 24.4641C51.8828 24.4641 51.1849 24.361 50.6298 24.1548C50.0905 23.9327 49.6543 23.6076 49.3212 23.1793C48.9881 22.7511 48.7502 22.2276 48.6075 21.609C48.4806 20.9746 48.4171 20.245 48.4171 19.4202V8.38067L50.6298 8V11.8305Z"/>
<path d="M62.3199 22.6083C62.8433 22.6083 63.3033 22.6004 63.6998 22.5845C64.1122 22.5528 64.4532 22.5052 64.7229 22.4418V18.754C64.5642 18.6747 64.3025 18.6112 63.9377 18.5637C63.5888 18.5002 63.1605 18.4685 62.6529 18.4685C62.3199 18.4685 61.963 18.4923 61.5823 18.5399C61.2175 18.5875 60.8765 18.6905 60.5592 18.8492C60.2579 18.9919 60.0041 19.1981 59.7979 19.4678C59.5917 19.7215 59.4886 20.0626 59.4886 20.4908C59.4886 21.2839 59.7424 21.839 60.25 22.1563C60.7575 22.4576 61.4475 22.6083 62.3199 22.6083ZM62.1295 11.5212C63.0178 11.5212 63.7632 11.6402 64.366 11.8781C64.9846 12.1002 65.4763 12.4253 65.8411 12.8536C66.2217 13.266 66.4914 13.7656 66.65 14.3525C66.8086 14.9235 66.8879 15.5579 66.8879 16.2558V23.9882C66.6976 24.02 66.4279 24.0675 66.079 24.131C65.7459 24.1786 65.3652 24.2262 64.937 24.2737C64.5087 24.3213 64.0408 24.361 63.5333 24.3927C63.0415 24.4403 62.5498 24.4641 62.0581 24.4641C61.3602 24.4641 60.7179 24.3927 60.131 24.25C59.5441 24.1072 59.0366 23.8851 58.6083 23.5838C58.18 23.2665 57.847 22.8542 57.609 22.3466C57.3711 21.839 57.2522 21.2284 57.2522 20.5146C57.2522 19.8326 57.387 19.2457 57.6566 18.754C57.9421 18.2623 58.3228 17.8658 58.7986 17.5644C59.2745 17.263 59.8296 17.041 60.4641 16.8982C61.0985 16.7555 61.7647 16.6841 62.4626 16.6841C62.6847 16.6841 62.9147 16.7 63.1526 16.7317C63.3905 16.7475 63.6126 16.7793 63.8188 16.8268C64.0408 16.8586 64.2311 16.8903 64.3898 16.922C64.5484 16.9537 64.6594 16.9775 64.7229 16.9934V16.3748C64.7229 16.01 64.6832 15.6531 64.6039 15.3042C64.5246 14.9393 64.3818 14.6221 64.1756 14.3525C63.9694 14.067 63.6839 13.8449 63.3191 13.6863C62.9702 13.5118 62.5102 13.4246 61.9392 13.4246C61.2096 13.4246 60.5672 13.4801 60.012 13.5911C59.4727 13.6863 59.0683 13.7894 58.7986 13.9004L58.5369 12.0684C58.8224 11.9415 59.2983 11.8226 59.9645 11.7116C60.6306 11.5847 61.3523 11.5212 62.1295 11.5212Z"/>
</mask>
<path d="M0 12.1874C0.507563 12.0605 1.17374 11.9257 1.99853 11.7829C2.83918 11.6402 3.80672 11.5688 4.90116 11.5688C5.69422 11.5688 6.3604 11.6798 6.89969 11.9019C7.43897 12.1081 7.89102 12.4174 8.25583 12.8298C8.36686 12.7505 8.54134 12.6394 8.77926 12.4967C9.01718 12.3539 9.31061 12.2191 9.65956 12.0922C10.0085 11.9495 10.3971 11.8305 10.8254 11.7353C11.2536 11.6243 11.7136 11.5688 12.2053 11.5688C13.157 11.5688 13.9342 11.7116 14.5369 11.9971C15.1397 12.2667 15.6076 12.6553 15.9407 13.1629C16.2896 13.6704 16.5196 14.2732 16.6306 14.9711C16.7575 15.669 16.821 16.4303 16.821 17.2551V24.2024H14.6083V17.7309C14.6083 17.0013 14.5686 16.3748 14.4893 15.8514C14.4259 15.3279 14.2911 14.8918 14.0849 14.5428C13.8945 14.1939 13.6249 13.9401 13.2759 13.7815C12.9429 13.607 12.5067 13.5198 11.9674 13.5198C11.2219 13.5198 10.6033 13.6228 10.1116 13.829C9.63577 14.0194 9.31061 14.1939 9.13614 14.3525C9.26303 14.7649 9.3582 15.2169 9.42164 15.7086C9.48509 16.2003 9.51681 16.7158 9.51681 17.2551V24.2024H7.30415V17.7309C7.30415 17.0013 7.2645 16.3748 7.18519 15.8514C7.10588 15.3279 6.96313 14.8918 6.75693 14.5428C6.5666 14.1939 6.29696 13.9401 5.94801 13.7815C5.61492 13.607 5.18666 13.5198 4.66324 13.5198C4.44118 13.5198 4.20326 13.5277 3.94948 13.5435C3.69569 13.5594 3.44984 13.5832 3.21192 13.6149C2.98986 13.6308 2.78367 13.6546 2.59333 13.6863C2.40299 13.718 2.2761 13.7418 2.21266 13.7577V24.2024H0V12.1874Z" fill="#4465F0"/>
<path d="M31.4133 18.0164C31.4133 18.9998 31.2705 19.8881 30.985 20.6811C30.6995 21.4742 30.2951 22.1563 29.7716 22.7273C29.2641 23.2983 28.6534 23.7424 27.9396 24.0596C27.2259 24.361 26.4487 24.5117 25.608 24.5117C24.7674 24.5117 23.9902 24.361 23.2764 24.0596C22.5626 23.7424 21.9441 23.2983 21.4206 22.7273C20.9131 22.1563 20.5165 21.4742 20.231 20.6811C19.9455 19.8881 19.8028 18.9998 19.8028 18.0164C19.8028 17.0489 19.9455 16.1686 20.231 15.3755C20.5165 14.5666 20.9131 13.8766 21.4206 13.3056C21.9441 12.7346 22.5626 12.2984 23.2764 11.9971C23.9902 11.6798 24.7674 11.5212 25.608 11.5212C26.4487 11.5212 27.2259 11.6798 27.9396 11.9971C28.6534 12.2984 29.2641 12.7346 29.7716 13.3056C30.2951 13.8766 30.6995 14.5666 30.985 15.3755C31.2705 16.1686 31.4133 17.0489 31.4133 18.0164ZM29.1054 18.0164C29.1054 16.6206 28.7882 15.5183 28.1538 14.7094C27.5352 13.8846 26.6866 13.4722 25.608 13.4722C24.5295 13.4722 23.6729 13.8846 23.0385 14.7094C22.4199 15.5183 22.1106 16.6206 22.1106 18.0164C22.1106 19.4122 22.4199 20.5225 23.0385 21.3473C23.6729 22.1563 24.5295 22.5607 25.608 22.5607C26.6866 22.5607 27.5352 22.1563 28.1538 21.3473C28.7882 20.5225 29.1054 19.4122 29.1054 18.0164Z" fill="#4465F0"/>
<path d="M45.4469 18.0164C45.4469 18.9998 45.3041 19.8881 45.0186 20.6811C44.7331 21.4742 44.3286 22.1563 43.8052 22.7273C43.2976 23.2983 42.687 23.7424 41.9732 24.0596C41.2595 24.361 40.4823 24.5117 39.6416 24.5117C38.8009 24.5117 38.0237 24.361 37.31 24.0596C36.5962 23.7424 35.9776 23.2983 35.4542 22.7273C34.9466 22.1563 34.5501 21.4742 34.2646 20.6811C33.9791 19.8881 33.8363 18.9998 33.8363 18.0164C33.8363 17.0489 33.9791 16.1686 34.2646 15.3755C34.5501 14.5666 34.9466 13.8766 35.4542 13.3056C35.9776 12.7346 36.5962 12.2984 37.31 11.9971C38.0237 11.6798 38.8009 11.5212 39.6416 11.5212C40.4823 11.5212 41.2595 11.6798 41.9732 11.9971C42.687 12.2984 43.2976 12.7346 43.8052 13.3056C44.3286 13.8766 44.7331 14.5666 45.0186 15.3755C45.3041 16.1686 45.4469 17.0489 45.4469 18.0164ZM43.139 18.0164C43.139 16.6206 42.8218 15.5183 42.1873 14.7094C41.5688 13.8846 40.7202 13.4722 39.6416 13.4722C38.563 13.4722 37.7065 13.8846 37.0721 14.7094C36.4535 15.5183 36.1442 16.6206 36.1442 18.0164C36.1442 19.4122 36.4535 20.5225 37.0721 21.3473C37.7065 22.1563 38.563 22.5607 39.6416 22.5607C40.7202 22.5607 41.5688 22.1563 42.1873 21.3473C42.8218 20.5225 43.139 19.4122 43.139 18.0164Z" fill="#4465F0"/>
<path d="M50.6298 11.8305H55.3168V13.6863H50.6298V19.3964C50.6298 20.015 50.6774 20.5305 50.7725 20.9429C50.8677 21.3394 51.0105 21.6566 51.2008 21.8945C51.3911 22.1166 51.6291 22.2752 51.9146 22.3704C52.2001 22.4656 52.5332 22.5131 52.9138 22.5131C53.58 22.5131 54.1114 22.4418 54.5079 22.299C54.9203 22.1404 55.2058 22.0294 55.3644 21.9659L55.7927 23.7979C55.5706 23.9089 55.182 24.0438 54.6269 24.2024C54.0717 24.3768 53.4373 24.4641 52.7235 24.4641C51.8828 24.4641 51.1849 24.361 50.6298 24.1548C50.0905 23.9327 49.6543 23.6076 49.3212 23.1793C48.9881 22.7511 48.7502 22.2276 48.6075 21.609C48.4806 20.9746 48.4171 20.245 48.4171 19.4202V8.38067L50.6298 8V11.8305Z" fill="#4465F0"/>
<path d="M62.3199 22.6083C62.8433 22.6083 63.3033 22.6004 63.6998 22.5845C64.1122 22.5528 64.4532 22.5052 64.7229 22.4418V18.754C64.5642 18.6747 64.3025 18.6112 63.9377 18.5637C63.5888 18.5002 63.1605 18.4685 62.6529 18.4685C62.3199 18.4685 61.963 18.4923 61.5823 18.5399C61.2175 18.5875 60.8765 18.6905 60.5592 18.8492C60.2579 18.9919 60.0041 19.1981 59.7979 19.4678C59.5917 19.7215 59.4886 20.0626 59.4886 20.4908C59.4886 21.2839 59.7424 21.839 60.25 22.1563C60.7575 22.4576 61.4475 22.6083 62.3199 22.6083ZM62.1295 11.5212C63.0178 11.5212 63.7632 11.6402 64.366 11.8781C64.9846 12.1002 65.4763 12.4253 65.8411 12.8536C66.2217 13.266 66.4914 13.7656 66.65 14.3525C66.8086 14.9235 66.8879 15.5579 66.8879 16.2558V23.9882C66.6976 24.02 66.4279 24.0675 66.079 24.131C65.7459 24.1786 65.3652 24.2262 64.937 24.2737C64.5087 24.3213 64.0408 24.361 63.5333 24.3927C63.0415 24.4403 62.5498 24.4641 62.0581 24.4641C61.3602 24.4641 60.7179 24.3927 60.131 24.25C59.5441 24.1072 59.0366 23.8851 58.6083 23.5838C58.18 23.2665 57.847 22.8542 57.609 22.3466C57.3711 21.839 57.2522 21.2284 57.2522 20.5146C57.2522 19.8326 57.387 19.2457 57.6566 18.754C57.9421 18.2623 58.3228 17.8658 58.7986 17.5644C59.2745 17.263 59.8296 17.041 60.4641 16.8982C61.0985 16.7555 61.7647 16.6841 62.4626 16.6841C62.6847 16.6841 62.9147 16.7 63.1526 16.7317C63.3905 16.7475 63.6126 16.7793 63.8188 16.8268C64.0408 16.8586 64.2311 16.8903 64.3898 16.922C64.5484 16.9537 64.6594 16.9775 64.7229 16.9934V16.3748C64.7229 16.01 64.6832 15.6531 64.6039 15.3042C64.5246 14.9393 64.3818 14.6221 64.1756 14.3525C63.9694 14.067 63.6839 13.8449 63.3191 13.6863C62.9702 13.5118 62.5102 13.4246 61.9392 13.4246C61.2096 13.4246 60.5672 13.4801 60.012 13.5911C59.4727 13.6863 59.0683 13.7894 58.7986 13.9004L58.5369 12.0684C58.8224 11.9415 59.2983 11.8226 59.9645 11.7116C60.6306 11.5847 61.3523 11.5212 62.1295 11.5212Z" fill="#4465F0"/>
<path d="M0 12.1874C0.507563 12.0605 1.17374 11.9257 1.99853 11.7829C2.83918 11.6402 3.80672 11.5688 4.90116 11.5688C5.69422 11.5688 6.3604 11.6798 6.89969 11.9019C7.43897 12.1081 7.89102 12.4174 8.25583 12.8298C8.36686 12.7505 8.54134 12.6394 8.77926 12.4967C9.01718 12.3539 9.31061 12.2191 9.65956 12.0922C10.0085 11.9495 10.3971 11.8305 10.8254 11.7353C11.2536 11.6243 11.7136 11.5688 12.2053 11.5688C13.157 11.5688 13.9342 11.7116 14.5369 11.9971C15.1397 12.2667 15.6076 12.6553 15.9407 13.1629C16.2896 13.6704 16.5196 14.2732 16.6306 14.9711C16.7575 15.669 16.821 16.4303 16.821 17.2551V24.2024H14.6083V17.7309C14.6083 17.0013 14.5686 16.3748 14.4893 15.8514C14.4259 15.3279 14.2911 14.8918 14.0849 14.5428C13.8945 14.1939 13.6249 13.9401 13.2759 13.7815C12.9429 13.607 12.5067 13.5198 11.9674 13.5198C11.2219 13.5198 10.6033 13.6228 10.1116 13.829C9.63577 14.0194 9.31061 14.1939 9.13614 14.3525C9.26303 14.7649 9.3582 15.2169 9.42164 15.7086C9.48509 16.2003 9.51681 16.7158 9.51681 17.2551V24.2024H7.30415V17.7309C7.30415 17.0013 7.2645 16.3748 7.18519 15.8514C7.10588 15.3279 6.96313 14.8918 6.75693 14.5428C6.5666 14.1939 6.29696 13.9401 5.94801 13.7815C5.61492 13.607 5.18666 13.5198 4.66324 13.5198C4.44118 13.5198 4.20326 13.5277 3.94948 13.5435C3.69569 13.5594 3.44984 13.5832 3.21192 13.6149C2.98986 13.6308 2.78367 13.6546 2.59333 13.6863C2.40299 13.718 2.2761 13.7418 2.21266 13.7577V24.2024H0V12.1874Z" stroke="#4465F0" stroke-width="2" mask="url(#path-1-inside-1_96_172)"/>
<path d="M31.4133 18.0164C31.4133 18.9998 31.2705 19.8881 30.985 20.6811C30.6995 21.4742 30.2951 22.1563 29.7716 22.7273C29.2641 23.2983 28.6534 23.7424 27.9396 24.0596C27.2259 24.361 26.4487 24.5117 25.608 24.5117C24.7674 24.5117 23.9902 24.361 23.2764 24.0596C22.5626 23.7424 21.9441 23.2983 21.4206 22.7273C20.9131 22.1563 20.5165 21.4742 20.231 20.6811C19.9455 19.8881 19.8028 18.9998 19.8028 18.0164C19.8028 17.0489 19.9455 16.1686 20.231 15.3755C20.5165 14.5666 20.9131 13.8766 21.4206 13.3056C21.9441 12.7346 22.5626 12.2984 23.2764 11.9971C23.9902 11.6798 24.7674 11.5212 25.608 11.5212C26.4487 11.5212 27.2259 11.6798 27.9396 11.9971C28.6534 12.2984 29.2641 12.7346 29.7716 13.3056C30.2951 13.8766 30.6995 14.5666 30.985 15.3755C31.2705 16.1686 31.4133 17.0489 31.4133 18.0164ZM29.1054 18.0164C29.1054 16.6206 28.7882 15.5183 28.1538 14.7094C27.5352 13.8846 26.6866 13.4722 25.608 13.4722C24.5295 13.4722 23.6729 13.8846 23.0385 14.7094C22.4199 15.5183 22.1106 16.6206 22.1106 18.0164C22.1106 19.4122 22.4199 20.5225 23.0385 21.3473C23.6729 22.1563 24.5295 22.5607 25.608 22.5607C26.6866 22.5607 27.5352 22.1563 28.1538 21.3473C28.7882 20.5225 29.1054 19.4122 29.1054 18.0164Z" stroke="#4465F0" stroke-width="2" mask="url(#path-1-inside-1_96_172)"/>
<path d="M45.4469 18.0164C45.4469 18.9998 45.3041 19.8881 45.0186 20.6811C44.7331 21.4742 44.3286 22.1563 43.8052 22.7273C43.2976 23.2983 42.687 23.7424 41.9732 24.0596C41.2595 24.361 40.4823 24.5117 39.6416 24.5117C38.8009 24.5117 38.0237 24.361 37.31 24.0596C36.5962 23.7424 35.9776 23.2983 35.4542 22.7273C34.9466 22.1563 34.5501 21.4742 34.2646 20.6811C33.9791 19.8881 33.8363 18.9998 33.8363 18.0164C33.8363 17.0489 33.9791 16.1686 34.2646 15.3755C34.5501 14.5666 34.9466 13.8766 35.4542 13.3056C35.9776 12.7346 36.5962 12.2984 37.31 11.9971C38.0237 11.6798 38.8009 11.5212 39.6416 11.5212C40.4823 11.5212 41.2595 11.6798 41.9732 11.9971C42.687 12.2984 43.2976 12.7346 43.8052 13.3056C44.3286 13.8766 44.7331 14.5666 45.0186 15.3755C45.3041 16.1686 45.4469 17.0489 45.4469 18.0164ZM43.139 18.0164C43.139 16.6206 42.8218 15.5183 42.1873 14.7094C41.5688 13.8846 40.7202 13.4722 39.6416 13.4722C38.563 13.4722 37.7065 13.8846 37.0721 14.7094C36.4535 15.5183 36.1442 16.6206 36.1442 18.0164C36.1442 19.4122 36.4535 20.5225 37.0721 21.3473C37.7065 22.1563 38.563 22.5607 39.6416 22.5607C40.7202 22.5607 41.5688 22.1563 42.1873 21.3473C42.8218 20.5225 43.139 19.4122 43.139 18.0164Z" stroke="#4465F0" stroke-width="2" mask="url(#path-1-inside-1_96_172)"/>
<path d="M50.6298 11.8305H55.3168V13.6863H50.6298V19.3964C50.6298 20.015 50.6774 20.5305 50.7725 20.9429C50.8677 21.3394 51.0105 21.6566 51.2008 21.8945C51.3911 22.1166 51.6291 22.2752 51.9146 22.3704C52.2001 22.4656 52.5332 22.5131 52.9138 22.5131C53.58 22.5131 54.1114 22.4418 54.5079 22.299C54.9203 22.1404 55.2058 22.0294 55.3644 21.9659L55.7927 23.7979C55.5706 23.9089 55.182 24.0438 54.6269 24.2024C54.0717 24.3768 53.4373 24.4641 52.7235 24.4641C51.8828 24.4641 51.1849 24.361 50.6298 24.1548C50.0905 23.9327 49.6543 23.6076 49.3212 23.1793C48.9881 22.7511 48.7502 22.2276 48.6075 21.609C48.4806 20.9746 48.4171 20.245 48.4171 19.4202V8.38067L50.6298 8V11.8305Z" stroke="#4465F0" stroke-width="2" mask="url(#path-1-inside-1_96_172)"/>
<path d="M62.3199 22.6083C62.8433 22.6083 63.3033 22.6004 63.6998 22.5845C64.1122 22.5528 64.4532 22.5052 64.7229 22.4418V18.754C64.5642 18.6747 64.3025 18.6112 63.9377 18.5637C63.5888 18.5002 63.1605 18.4685 62.6529 18.4685C62.3199 18.4685 61.963 18.4923 61.5823 18.5399C61.2175 18.5875 60.8765 18.6905 60.5592 18.8492C60.2579 18.9919 60.0041 19.1981 59.7979 19.4678C59.5917 19.7215 59.4886 20.0626 59.4886 20.4908C59.4886 21.2839 59.7424 21.839 60.25 22.1563C60.7575 22.4576 61.4475 22.6083 62.3199 22.6083ZM62.1295 11.5212C63.0178 11.5212 63.7632 11.6402 64.366 11.8781C64.9846 12.1002 65.4763 12.4253 65.8411 12.8536C66.2217 13.266 66.4914 13.7656 66.65 14.3525C66.8086 14.9235 66.8879 15.5579 66.8879 16.2558V23.9882C66.6976 24.02 66.4279 24.0675 66.079 24.131C65.7459 24.1786 65.3652 24.2262 64.937 24.2737C64.5087 24.3213 64.0408 24.361 63.5333 24.3927C63.0415 24.4403 62.5498 24.4641 62.0581 24.4641C61.3602 24.4641 60.7179 24.3927 60.131 24.25C59.5441 24.1072 59.0366 23.8851 58.6083 23.5838C58.18 23.2665 57.847 22.8542 57.609 22.3466C57.3711 21.839 57.2522 21.2284 57.2522 20.5146C57.2522 19.8326 57.387 19.2457 57.6566 18.754C57.9421 18.2623 58.3228 17.8658 58.7986 17.5644C59.2745 17.263 59.8296 17.041 60.4641 16.8982C61.0985 16.7555 61.7647 16.6841 62.4626 16.6841C62.6847 16.6841 62.9147 16.7 63.1526 16.7317C63.3905 16.7475 63.6126 16.7793 63.8188 16.8268C64.0408 16.8586 64.2311 16.8903 64.3898 16.922C64.5484 16.9537 64.6594 16.9775 64.7229 16.9934V16.3748C64.7229 16.01 64.6832 15.6531 64.6039 15.3042C64.5246 14.9393 64.3818 14.6221 64.1756 14.3525C63.9694 14.067 63.6839 13.8449 63.3191 13.6863C62.9702 13.5118 62.5102 13.4246 61.9392 13.4246C61.2096 13.4246 60.5672 13.4801 60.012 13.5911C59.4727 13.6863 59.0683 13.7894 58.7986 13.9004L58.5369 12.0684C58.8224 11.9415 59.2983 11.8226 59.9645 11.7116C60.6306 11.5847 61.3523 11.5212 62.1295 11.5212Z" stroke="#4465F0" stroke-width="2" mask="url(#path-1-inside-1_96_172)"/>
<path d="M73.5669 18.9925L74.2185 19.1999V18.5161C74.2185 16.799 74.1946 15.3406 74.1467 14.1421L74.125 13.6001L73.5866 13.6658C72.8447 13.7563 72.215 14.0348 71.7399 14.5296L71.7396 14.5299C71.2997 14.989 71.0534 15.529 71.0534 16.1369C71.0534 16.7255 71.2966 17.2839 71.7088 17.8037L71.7088 17.8038L71.7154 17.8118C72.1698 18.3608 72.7984 18.748 73.5669 18.9925ZM75.4099 19.9219L74.8438 19.8653L74.8603 20.434C74.9398 23.1673 74.9791 24.7114 74.9791 25.0827C74.9791 25.3572 74.9093 25.5417 74.8031 25.6744C74.7314 25.764 74.6767 25.8094 74.6431 25.8304C74.6299 25.8387 74.6216 25.8422 74.6176 25.8436C74.5245 25.8429 74.4518 25.8222 74.3895 25.7876L74.38 25.7823L74.3703 25.7775C74.2467 25.7157 74.1704 25.639 74.1203 25.5485C74.0683 25.4545 74.0291 25.317 74.0281 25.1143L74.1944 20.1507L74.2084 19.7311L73.7977 19.6447C72.6779 19.4089 71.8386 18.9475 71.2414 18.2839C70.6574 17.5834 70.3879 16.8711 70.3879 16.1369C70.3879 15.4084 70.6601 14.7633 71.2408 14.1826C71.8343 13.5891 72.6251 13.2089 73.6464 13.063L74.0943 12.9991L74.0753 12.5471L73.9574 9.74239C73.9716 9.5469 74.0215 9.41033 74.0869 9.3123C74.1527 9.21357 74.2529 9.12565 74.4114 9.05596C75.3204 8.69059 76.4177 8.5 77.7155 8.5C79.5786 8.5 81.0898 9.03777 82.2868 10.0887L82.2867 10.0888L82.2917 10.093C83.5142 11.1387 84.0914 12.3308 84.0914 13.6863C84.0914 15.1205 83.727 16.2864 83.0263 17.2158L83.0252 17.2173C81.6882 19.0048 79.5382 19.9432 76.4545 19.9432C75.8761 19.9432 75.5385 19.9348 75.4099 19.9219ZM74.6148 25.8444C74.6149 25.8444 74.6153 25.8443 74.6161 25.8441L74.6148 25.8444ZM75.3509 13.6636L74.7913 13.6206L74.8129 14.1813C74.8283 14.5814 74.8363 16.1225 74.8363 18.8254V19.2489L75.2541 19.3186C75.3986 19.3427 75.6662 19.3492 76.0025 19.3492C78.0242 19.3492 79.7374 18.9133 81.1084 18.005C82.5365 17.0589 83.2356 15.6137 83.2356 13.7577C83.2356 12.4176 82.6549 11.3023 81.5472 10.4393C80.4672 9.56962 79.173 9.14165 77.6917 9.14165C76.6931 9.14165 75.8355 9.2475 75.1342 9.47543L74.7887 9.5877V9.95095C74.7887 10.529 74.8047 11.407 74.8365 12.5816L74.8481 13.0092L75.2723 13.064C76.17 13.1798 76.9389 13.5026 77.5925 14.0283L77.5925 14.0283L77.5966 14.0316C78.2913 14.5785 78.5241 15.0445 78.5241 15.4231C78.5241 15.5644 78.485 15.6163 78.4517 15.6463L78.4419 15.6551L78.4326 15.6644C78.3877 15.7092 78.3432 15.7303 78.2718 15.7319C78.2639 15.7293 78.2428 15.7209 78.207 15.6971C78.1399 15.6523 78.0471 15.5702 77.9299 15.4324L77.9299 15.4324L77.9282 15.4303C77.4766 14.9049 77.0427 14.4863 76.6258 14.1892C76.2119 13.8942 75.7841 13.6969 75.3509 13.6636ZM95.4457 20.2488L95.44 20.2863V20.3243C95.44 21.5019 95.5204 22.5055 95.688 23.3269L95.6879 23.3269L95.6906 23.3386C95.7819 23.737 95.8897 24.0778 96.0222 24.3427C96.1426 24.5836 96.326 24.8484 96.618 24.9693C96.7453 25.0301 96.8808 25.0696 97.02 25.0926C96.9897 25.3187 96.9123 25.4813 96.8075 25.6025C96.6911 25.7234 96.4935 25.8199 96.1304 25.8199C95.9636 25.8199 95.7529 25.737 95.5415 25.2626C95.3249 24.7606 95.2028 24.0745 95.2028 23.1793L94.2495 22.9683C93.8532 23.8198 93.3075 24.5083 92.6132 25.0435C91.9399 25.5625 91.183 25.8199 90.3251 25.8199C89.4967 25.8199 88.8024 25.5484 88.2151 25.0021L88.214 25.0011C87.071 23.9438 86.4712 22.4333 86.4712 20.3956C86.4712 18.7705 86.9381 17.3735 87.8647 16.1821C88.7733 15.014 89.9148 14.448 91.3244 14.448C92.3879 14.448 93.2974 14.8048 94.0774 15.528L94.9173 16.3069V15.1614C94.9173 14.8045 94.9864 14.6278 95.0443 14.5501C95.0816 14.5 95.1433 14.448 95.3214 14.448C95.5406 14.448 95.6479 14.5183 95.7262 14.6358C95.8284 14.7891 95.9159 15.0822 95.9159 15.5897C95.9159 16.6293 95.762 18.1772 95.4457 20.2488ZM95.0373 20.6875L95.0626 20.6068L95.0598 20.5222L94.9409 16.8582L94.9344 16.6582L94.7916 16.5179C93.7873 15.5305 92.6764 14.9945 91.4671 14.9945C90.245 14.9945 89.2126 15.551 88.3875 16.5867C87.5635 17.6211 87.1604 18.8686 87.1604 20.3005C87.1604 21.6756 87.4168 22.8491 87.9664 23.7886L87.9663 23.7886L87.9685 23.7922C88.5394 24.7499 89.3752 25.2734 90.4441 25.2734C91.4835 25.2734 92.4086 24.8044 93.2097 23.9518C94.0189 23.1075 94.6233 22.0123 95.0373 20.6875ZM108.756 20.4581L108.775 20.389L108.774 20.3174L108.703 15.1614C108.703 15.1603 108.703 15.1593 108.703 15.1582C108.703 14.8034 108.772 14.6276 108.83 14.5501C108.867 14.5 108.929 14.448 109.107 14.448C109.307 14.448 109.415 14.5144 109.501 14.6555C109.612 14.8366 109.701 15.1725 109.701 15.7324C109.701 16.6258 109.54 18.1228 109.208 20.2469L109.198 20.3098L109.204 20.3732C109.394 22.3051 109.487 23.7284 109.487 24.6544C109.487 26.6495 108.993 28.1921 108.054 29.3331L108.054 29.333L108.05 29.3384C107.142 30.4731 105.875 31.0541 104.182 31.0541C103.305 31.0541 102.457 30.8647 101.632 30.482L101.632 30.482L101.626 30.4789C101.204 30.2907 100.925 30.1162 100.759 29.9651C100.593 29.8137 100.589 29.7335 100.589 29.7221C100.589 29.6792 100.593 29.649 100.597 29.6292C100.607 29.6281 100.62 29.6273 100.637 29.6273C100.634 29.6273 100.636 29.6277 100.644 29.6295C100.669 29.6349 100.754 29.6528 100.927 29.7096C101.13 29.7759 101.405 29.8779 101.755 30.0181C102.529 30.3443 103.34 30.5076 104.182 30.5076C105.634 30.5076 106.827 29.9747 107.707 28.8999C108.591 27.8541 109.012 26.5021 109.012 24.8923C109.012 24.3229 108.987 23.7685 108.938 23.2292L108.796 21.6608L108.008 23.0242C106.891 24.9564 105.556 25.8199 104.015 25.8199C102.89 25.8199 102.062 25.4153 101.468 24.6203C100.843 23.7517 100.52 22.7038 100.518 21.4522L100.66 17.8697L100.661 17.8598V17.8499C100.661 17.3182 100.593 16.6994 100.462 15.9989C100.333 15.2879 100.281 14.9035 100.28 14.7825C100.281 14.7772 100.292 14.7159 100.412 14.5945C100.522 14.4954 100.644 14.448 100.803 14.448C100.909 14.448 100.978 14.4708 101.027 14.4998C101.076 14.5291 101.132 14.5811 101.188 14.6804C101.307 14.893 101.397 15.2753 101.398 15.89L101.208 21.115L101.207 21.1241V21.1332C101.207 22.2942 101.451 23.2837 101.986 24.0582L101.986 24.0582L101.99 24.0647C102.559 24.8604 103.352 25.2734 104.324 25.2734C105.339 25.2734 106.251 24.7028 107.062 23.7393L107.062 23.7394L107.068 23.732C107.857 22.7587 108.42 21.6661 108.756 20.4581Z" fill="#11193C" stroke="#11193C"/>
</svg>
