<svg width="32" height="32" viewBox="0 0 32 32" fill="none" xmlns="http://www.w3.org/2000/svg">
<rect width="31.7702" height="32" fill="white"/>
<path fill-rule="evenodd" clip-rule="evenodd" d="M3.62823 17.9439C1.75129 12.7497 4.43332 6.99802 9.61869 5.09704L14.1332 3.442C19.3186 1.54103 25.0438 4.21066 26.9207 9.40479L28.6015 14.0561C30.4784 19.2502 27.7964 25.002 22.611 26.9029L18.0965 28.558C12.9111 30.4589 7.18594 27.7893 5.30901 22.5952L3.62823 17.9439Z" fill="#4465F0"/>
<path fill-rule="evenodd" clip-rule="evenodd" d="M22.2382 19.5702C23.8089 16.83 23.345 13.4627 21.3213 11.2359L19.8909 13.7315C20.6922 15.0699 20.7681 16.7913 19.941 18.2343C19.1138 19.6773 17.5958 20.4718 16.0444 20.442L14.6139 22.9375C17.5403 23.5894 20.6675 22.3104 22.2382 19.5702ZM16.2305 11.6029L17.6609 9.10731C14.7345 8.45548 11.6074 9.7345 10.0367 12.4747C8.46598 15.2149 8.92984 18.5822 10.9535 20.809L12.384 18.3134C11.5826 16.975 11.5067 15.2536 12.3339 13.8106C13.161 12.3676 14.679 11.5731 16.2305 11.6029ZM15.0431 14.3967C15.5551 14.3593 16.6084 14.2835 17.1204 14.2466C17.2953 14.234 17.3641 14.2835 17.3763 14.4219L17.5448 16.3312C17.5575 16.4774 17.473 16.4914 17.3525 16.3914C17.2733 16.3304 17.1839 16.2573 17.0842 16.1757C16.9578 16.0723 16.8148 15.9554 16.6552 15.8324C16.1618 16.322 15.9896 16.5128 15.8266 16.9978C15.7175 17.3232 16.0451 17.4757 16.2777 17.5841C16.4007 17.6413 16.4971 17.6862 16.4883 17.7378C16.4668 17.8831 15.0733 17.8519 14.7785 16.7983C14.4836 15.7407 15.5819 15.0056 15.5819 15.0056C15.3362 14.8421 15.1662 14.7108 15.0241 14.601C15.0078 14.5884 14.9919 14.5762 14.9764 14.5642C14.8611 14.4752 14.9066 14.4064 15.0431 14.3967Z" fill="white"/>
</svg>
